<svg xmlns="http://www.w3.org/2000/svg" width="22" height="19.749"><path fill="#292d32" d="M11 19.748a2.649 2.649 0 0 1-.88-.133C6.211 18.275 0 13.515 0 6.487A6.476 6.476 0 0 1 6.457 0 6.359 6.359 0 0 1 11 1.882a6.359 6.359 0 0 1 4.543-1.883A6.483 6.483 0 0 1 22 6.487c0 7.04-6.211 11.788-10.12 13.128a2.649 2.649 0 0 1-.88.133ZM6.457 1.534a4.944 4.944 0 0 0-4.922 4.953c0 6.989 6.723 10.877 9.087 11.686a1.622 1.622 0 0 0 .767 0c2.353-.808 9.087-4.687 9.087-11.686a4.944 4.944 0 0 0-4.926-4.953 4.862 4.862 0 0 0-3.929 1.985.792.792 0 0 1-1.228 0 4.881 4.881 0 0 0-3.936-1.985Z"/></svg>