<svg xmlns="http://www.w3.org/2000/svg" xml:space="preserve" width="512" height="512" style="enable-background:new 0 0 512 512" viewBox="0 0 507.2 507.2"><circle cx="253.6" cy="253.6" r="253.6" fill="#32ba7c" data-original="#32ba7c"/><path fill="#32ba7c" d="m188.8 368 130.4 130.4c108-28.8 188-127.2 188-244.8v-7.2L404.8 152l-216 216z" data-original="#0aa06e"/><path fill="#fff" d="M260 310.4c11.2 11.2 11.2 30.4 0 41.6l-23.2 23.2c-11.2 11.2-30.4 11.2-41.6 0L93.6 272.8c-11.2-11.2-11.2-30.4 0-41.6l23.2-23.2c11.2-11.2 30.4-11.2 41.6 0L260 310.4z" data-original="#ffffff"/><path fill="#fff" d="M348.8 133.6c11.2-11.2 30.4-11.2 41.6 0l23.2 23.2c11.2 11.2 11.2 30.4 0 41.6l-176 175.2c-11.2 11.2-30.4 11.2-41.6 0l-23.2-23.2c-11.2-11.2-11.2-30.4 0-41.6l176-175.2z" data-original="#ffffff"/></svg>