<svg xmlns="http://www.w3.org/2000/svg" width="18.965" height="19" viewBox="0 0 18.965 19">
  <path id="call" d="M15.566,20.25a8.085,8.085,0,0,1-3.137-.7,16.592,16.592,0,0,1-3.173-1.82A27.585,27.585,0,0,1,6.278,15.2a26.4,26.4,0,0,1-2.536-2.969,16.492,16.492,0,0,1-1.8-3.146A8.182,8.182,0,0,1,1.25,5.925a5.325,5.325,0,0,1,.362-1.953A4.72,4.72,0,0,1,2.8,2.257,3.209,3.209,0,0,1,5.085,1.25a2.39,2.39,0,0,1,1,.221,2.022,2.022,0,0,1,.848.716l2.05,2.89a3.424,3.424,0,0,1,.424.751,1.985,1.985,0,0,1,.177.787,1.875,1.875,0,0,1-.283.972,3.535,3.535,0,0,1-.592.751l-.6.627a.431.431,0,0,0,.027.062,6.8,6.8,0,0,0,.725.981c.433.495.84.946,1.246,1.361.521.513.954.919,1.361,1.255a5.756,5.756,0,0,0,1.025.733l-.018.044.645-.636a3.3,3.3,0,0,1,.8-.61,1.865,1.865,0,0,1,1.723-.1,4.024,4.024,0,0,1,.742.415l2.934,2.086a1.9,1.9,0,0,1,.707.84,2.557,2.557,0,0,1,.194.954,2.947,2.947,0,0,1-.283,1.246,4.116,4.116,0,0,1-.707,1.06,4.532,4.532,0,0,1-1.688,1.211A5.218,5.218,0,0,1,15.566,20.25ZM5.085,2.576a1.937,1.937,0,0,0-1.37.636A3.39,3.39,0,0,0,2.85,4.458a3.866,3.866,0,0,0-.274,1.467,6.813,6.813,0,0,0,.583,2.633A14.751,14.751,0,0,0,4.82,11.439a24.449,24.449,0,0,0,2.395,2.81,24.882,24.882,0,0,0,2.819,2.4,14.359,14.359,0,0,0,2.907,1.67,5.271,5.271,0,0,0,4.092.309,3.263,3.263,0,0,0,1.211-.875,2.866,2.866,0,0,0,.495-.742,1.566,1.566,0,0,0,.159-.68,1.055,1.055,0,0,0-.1-.442.669.669,0,0,0-.247-.265l-2.934-2.086a2.534,2.534,0,0,0-.486-.274.465.465,0,0,0-.574.027,2.015,2.015,0,0,0-.513.4l-.672.663a1.26,1.26,0,0,1-1.281.265l-.239-.106a7.533,7.533,0,0,1-1.255-.893c-.424-.362-.884-.787-1.44-1.334-.433-.442-.866-.91-1.317-1.432a7.54,7.54,0,0,1-.9-1.246l-.106-.265A1.65,1.65,0,0,1,6.764,8.9,1.134,1.134,0,0,1,7.1,8.081l.663-.689a2.559,2.559,0,0,0,.4-.495.567.567,0,0,0,.1-.3.821.821,0,0,0-.071-.283A2.535,2.535,0,0,0,7.9,5.845l-2.05-2.9a.814.814,0,0,0-.327-.274A1.107,1.107,0,0,0,5.085,2.576ZM12.473,13.41l-.141.6.239-.619A.109.109,0,0,0,12.473,13.41Z" transform="translate(-1.25 -1.25)" fill="#e95051"/>
</svg>
