<svg xmlns="http://www.w3.org/2000/svg" width="19.955" height="15.211" viewBox="0 0 19.955 15.211">
  <path id="discord" d="M16.893,3.157A16.5,16.5,0,0,0,12.831,1.9a.062.062,0,0,0-.065.031,11.378,11.378,0,0,0-.506,1.039,15.2,15.2,0,0,0-4.562,0,10.3,10.3,0,0,0-.514-1.039A.064.064,0,0,0,7.119,1.9,16.384,16.384,0,0,0,3.057,3.157a.051.051,0,0,0-.026.022A16.843,16.843,0,0,0,.082,14.538a.07.07,0,0,0,.026.046A16.558,16.558,0,0,0,5.091,17.1a.062.062,0,0,0,.07-.024,11.872,11.872,0,0,0,1.02-1.658.062.062,0,0,0-.012-.074.064.064,0,0,0-.022-.014,11.069,11.069,0,0,1-1.556-.742.062.062,0,0,1-.025-.082.064.064,0,0,1,.019-.024c.1-.079.21-.161.309-.243a.062.062,0,0,1,.064-.009,11.8,11.8,0,0,0,10.029,0,.065.065,0,0,1,.066.009c.1.082.2.165.309.243a.064.064,0,0,1,0,.106,10.294,10.294,0,0,1-1.558.741.062.062,0,0,0-.037.037.065.065,0,0,0,0,.051,13.264,13.264,0,0,0,1.019,1.658.062.062,0,0,0,.07.024,16.507,16.507,0,0,0,4.99-2.519.061.061,0,0,0,.026-.046A16.724,16.724,0,0,0,16.918,3.181a.042.042,0,0,0-.025-.024ZM6.669,12.27a1.917,1.917,0,0,1-1.793-2.01A1.908,1.908,0,0,1,6.669,8.248,1.9,1.9,0,0,1,8.462,10.26,1.907,1.907,0,0,1,6.669,12.27Zm6.63,0a1.918,1.918,0,0,1-1.793-2.01A1.908,1.908,0,0,1,13.3,8.248a1.9,1.9,0,0,1,1.793,2.012A1.9,1.9,0,0,1,13.3,12.27Z" transform="translate(0 -1.895)" fill="#fff"/>
</svg>
