<svg xmlns="http://www.w3.org/2000/svg" width="19.865" height="19.375" viewBox="0 0 19.865 19.375">
  <path id="github" d="M9.932,0A9.933,9.933,0,0,0,6.791,19.356c.5.087.683-.211.683-.472,0-.236-.012-1.018-.012-1.85-2.5.459-3.141-.608-3.34-1.167a3.612,3.612,0,0,0-1.018-1.4c-.348-.186-.844-.646-.012-.658a1.988,1.988,0,0,1,1.527,1.018,2.123,2.123,0,0,0,2.893.819,2.089,2.089,0,0,1,.633-1.328c-2.21-.248-4.519-1.1-4.519-4.9A3.865,3.865,0,0,1,4.643,6.742a3.569,3.569,0,0,1,.1-2.632s.832-.261,2.731,1.018a9.364,9.364,0,0,1,4.966,0c1.9-1.291,2.731-1.018,2.731-1.018a3.569,3.569,0,0,1,.1,2.632,3.843,3.843,0,0,1,1.018,2.669c0,3.812-2.322,4.656-4.532,4.9a2.352,2.352,0,0,1,.67,1.837c0,1.328-.012,2.4-.012,2.731,0,.261.186.571.683.472A9.938,9.938,0,0,0,9.932,0Z" fill="#fff"/>
</svg>
