<svg xmlns="http://www.w3.org/2000/svg" width="20.081" height="20.081" viewBox="0 0 20.081 20.081">
  <path id="instagram" d="M10.041,0C7.316,0,6.973.013,5.9.06A7.4,7.4,0,0,0,3.464.527,4.916,4.916,0,0,0,1.686,1.686,4.929,4.929,0,0,0,.527,3.464,7.355,7.355,0,0,0,.06,5.9C.013,6.972,0,7.313,0,10.042s.013,3.067.06,4.138a7.4,7.4,0,0,0,.467,2.437,5.14,5.14,0,0,0,2.936,2.937,7.371,7.371,0,0,0,2.437.467c1.072.048,1.413.06,4.14.06s3.067-.013,4.139-.06a7.412,7.412,0,0,0,2.439-.467,5.14,5.14,0,0,0,2.936-2.937,7.429,7.429,0,0,0,.467-2.437c.048-1.071.06-1.412.06-4.139s-.013-3.069-.06-4.14a7.421,7.421,0,0,0-.467-2.436A4.927,4.927,0,0,0,18.4,1.686,4.909,4.909,0,0,0,16.617.527,7.386,7.386,0,0,0,14.178.06C13.107.013,12.767,0,10.038,0h0Zm-.9,1.81h.9c2.681,0,3,.009,4.056.058a5.564,5.564,0,0,1,1.865.345,3.115,3.115,0,0,1,1.155.752,3.1,3.1,0,0,1,.751,1.155,5.515,5.515,0,0,1,.345,1.864c.049,1.058.059,1.376.059,4.055s-.01,3-.059,4.056a5.555,5.555,0,0,1-.345,1.864,3.328,3.328,0,0,1-1.906,1.9,5.524,5.524,0,0,1-1.864.346c-1.058.048-1.376.059-4.056.059s-3-.011-4.058-.059a5.546,5.546,0,0,1-1.864-.346,3.11,3.11,0,0,1-1.155-.751,3.113,3.113,0,0,1-.753-1.155,5.547,5.547,0,0,1-.345-1.864c-.048-1.058-.058-1.376-.058-4.058s.01-3,.058-4.055a5.555,5.555,0,0,1,.346-1.865,3.115,3.115,0,0,1,.752-1.155A3.1,3.1,0,0,1,4.12,2.21a5.546,5.546,0,0,1,1.864-.346c.926-.043,1.285-.055,3.156-.056v0ZM15.4,3.477a1.2,1.2,0,1,0,1.2,1.2,1.2,1.2,0,0,0-1.2-1.2ZM10.042,4.885A5.157,5.157,0,1,0,15.2,10.041a5.156,5.156,0,0,0-5.157-5.157Zm0,1.809a3.347,3.347,0,1,1-3.347,3.347A3.347,3.347,0,0,1,10.042,6.693Z" fill="#fff"/>
</svg>
