<svg xmlns="http://www.w3.org/2000/svg" width="18.96" height="21.74" viewBox="0 0 18.96 21.74">
  <g id="location" transform="translate(-2.625 -1.25)">
    <path id="Path_26" data-name="Path 26" d="M12.967,16.1A4.831,4.831,0,1,1,17.8,11.279,4.841,4.841,0,0,1,12.967,16.1Zm0-7.788a2.963,2.963,0,1,0,2.963,2.963A2.969,2.969,0,0,0,12.967,8.316Z" transform="translate(-0.867 -0.642)" fill="#e95051"/>
    <path id="Path_27" data-name="Path 27" d="M12.1,22.99A6.034,6.034,0,0,1,7.928,21.3c-2.982-2.87-6.276-7.449-5.033-12.9A9.214,9.214,0,0,1,12.1,1.25h.01a9.212,9.212,0,0,1,9.207,7.166c1.233,5.448-2.062,10.016-5.043,12.886A6.034,6.034,0,0,1,12.1,22.99Zm0-20.224A7.633,7.633,0,0,0,4.38,8.739C3.289,13.5,6.28,17.6,8.989,20.2a4.473,4.473,0,0,0,6.236,0c2.7-2.6,5.69-6.7,4.619-11.461A7.661,7.661,0,0,0,12.1,2.766Z" transform="translate(0)" fill="#e95051"/>
  </g>
</svg>
