<svg xmlns="http://www.w3.org/2000/svg" width="21.148" height="23.177" viewBox="0 0 21.148 23.177">
  <g id="trash" transform="translate(-2.18 -1.25)">
    <path id="Path_51" data-name="Path 51" d="M22.509,6.022c-3.609-.358-7.24-.542-10.86-.542a64.019,64.019,0,0,0-6.438.325L3,6.022" transform="translate(0 0.292)" fill="none" stroke="#fff" stroke-linecap="round" stroke-linejoin="round" stroke-width="1.5"/>
    <path id="Path_52" data-name="Path 52" d="M8.5,5.219,8.738,3.8c.173-1.03.3-1.8,2.135-1.8h2.84c1.832,0,1.973.813,2.135,1.81l.238,1.409" transform="translate(0.461)" fill="none" stroke="#fff" stroke-linecap="round" stroke-linejoin="round" stroke-width="1.5" opacity="0.34"/>
    <path id="Path_53" data-name="Path 53" d="M20,9.141l-.7,10.914c-.119,1.7-.217,3.024-3.241,3.024H9.1c-3.024,0-3.121-1.322-3.241-3.024L5.15,9.141" transform="translate(0.18 0.598)" fill="none" stroke="#fff" stroke-linecap="round" stroke-linejoin="round" stroke-width="1.5"/>
    <path id="Path_54" data-name="Path 54" d="M10.33,16.5h3.609" transform="translate(0.614 1.215)" fill="none" stroke="#fff" stroke-linecap="round" stroke-linejoin="round" stroke-width="1.5" opacity="0.34"/>
    <path id="Path_55" data-name="Path 55" d="M9.5,12.5h5.419" transform="translate(0.545 0.88)" fill="none" stroke="#fff" stroke-linecap="round" stroke-linejoin="round" stroke-width="1.5" opacity="0.34"/>
  </g>
</svg>
