<svg xmlns="http://www.w3.org/2000/svg" version="1.1" xmlns:xlink="http://www.w3.org/1999/xlink" xmlns:svgjs="http://svgjs.com/svgjs" width="512" height="512" x="0" y="0" viewBox="0 0 512 512" style="enable-background:new 0 0 512 512" xml:space="preserve" class=""><g><path d="M154.688 356.055C141.148 348.289 132 333.699 132 317c0-68.926 56.074-125 125-125h51.512l2.425-40H19.062l20.965 345.906C40.507 505.824 47.067 512 55 512h92.04c-9.438-12.543-15.04-28.129-15.04-45 0-19.45 12.406-36.055 29.719-42.324-6.137-9.41-9.719-20.63-9.719-32.676 0-12.059 3.59-23.29 9.738-32.707-4.89-1.102-7.605-2.184-7.05-3.238zM164.984 122.004c.012 0 .024-.004.036-.004H315c8.285 0 15-6.715 15-15s-6.715-15-15-15H192.691l40.434-62H285c8.285 0 15-6.715 15-15s-6.715-15-15-15h-60a14.99 14.99 0 0 0-12.563 6.805L156.875 92H15c-8.285 0-15 6.715-15 15s6.715 15 15 15h149.93c.02 0 .039.004.054.004zm0 0" fill="#f54748" data-original="#000000" class=""></path><path d="M162 317c0 8.285 6.715 15 15 15h320c8.285 0 15-6.715 15-15 0-52.383-42.617-95-95-95H257c-52.383 0-95 42.617-95 95zM212 362c-16.57 0-30 13.43-30 30s13.43 30 30 30h250c16.57 0 30-13.43 30-30s-13.43-30-30-30zM497 452H177c-8.285 0-15 6.715-15 15 0 24.813 20.188 45 45 45h260c24.813 0 45-20.188 45-45 0-8.285-6.715-15-15-15zm0 0" fill="#f54748" data-original="#000000" class=""></path></g></svg>